<?xml version="1.0" standalone="no"?>
<!DOCTYPE svg PUBLIC "-//W3C//DTD SVG 20010904//EN"
 "http://www.w3.org/TR/2001/REC-SVG-20010904/DTD/svg10.dtd">
<svg version="1.0" xmlns="http://www.w3.org/2000/svg"
 width="700.000000pt" height="700.000000pt" viewBox="0 0 700.000000 700.000000"
 preserveAspectRatio="xMidYMid meet">
<metadata>
Created by potrace 1.14, written by Peter Selinger 2001-2017
</metadata>
<g transform="translate(0.000000,700.000000) scale(0.100000,-0.100000)"
fill="#000000" stroke="none">
<path d="M530 6979 c-259 -68 -445 -256 -510 -514 -20 -79 -20 -107 -18 -2990
l3 -2910 27 -80 c38 -112 91 -197 174 -279 82 -83 167 -136 279 -174 l80 -27
2935 0 2935 0 80 27 c112 38 197 91 279 174 83 82 136 167 174 279 l27 80 0
2935 0 2935 -27 80 c-38 112 -91 197 -174 279 -82 83 -167 136 -279 174 l-80
27 -2915 2 c-2868 2 -2916 2 -2990 -18z m3560 -1022 c0 -7 -180 -1103 -400
-2435 -220 -1332 -400 -2426 -400 -2432 0 -6 -75 -10 -206 -10 l-207 0 6 37
c4 21 185 1121 404 2446 l397 2407 203 0 c160 0 203 -3 203 -13z m-1517 -1668
c-5 -4 -357 -205 -783 -447 -426 -242 -776 -444 -777 -448 -2 -5 350 -207 782
-449 l784 -440 1 -542 c0 -299 -3 -543 -6 -543 -3 0 -565 338 -1250 752
l-1244 751 2 466 3 466 1245 755 1245 755 3 -534 c1 -294 -1 -538 -5 -542z
m4160 -323 l167 -101 0 -465 0 -465 -1244 -757 c-684 -417 -1247 -758 -1250
-758 -3 0 -6 242 -6 538 l0 539 783 442 c430 244 785 446 789 449 4 4 -349
207 -783 452 l-789 445 0 542 0 542 1083 -651 c595 -358 1157 -697 1250 -752z"/>
</g>
</svg>
